{"title":"Ice Age Collision Course 2016 Movies HD TS XviD New +Sample ☻rDX","uid":15501230,"size":739495136,"categoryP":"video","categoryS":"movies","magnet":"?xt=urn:btih:d7334110408f3ddf79fbea44e4b1544be603f67b&amp;dn=Ice+Age+Collision+Course+2016+Movies+HD+TS+XviD+New+%2BSample+%E2%98%BBrDX&amp;tr=udp%3A%2F%2Ftracker.leechers-paradise.org%3A6969&amp;tr=udp%3A%2F%2Fzer0day.ch%3A1337&amp;tr=udp%3A%2F%2Fopen.demonii.com%3A1337&amp;tr=udp%3A%2F%2Ftracker.coppersurfer.tk%3A6969&amp;tr=udp%3A%2F%2Fexodus.desync.com%3A6969","seeders":1,"leechers":4,"uploader":"basicssom","files":2,"time":1470512290,"description":"----------------------------------------------------------------\r\nIce Age Collision Course 2016 English Movies HD TS XviD AAC New Source with Sample ☻rDX☻\r\n\r\nSCREEN SHOTS &amp; POSTER:\r\n  \nhttp://postimage.co.nr/2016/8/internet/index.htm  \nhttp://postimage.co.nr/2016/8/internet/1.html  \nhttp://postimage.co.nr/2016/8/internet/2.html  \nhttp://postimage.co.nr/2016/8/internet/3.html  \nhttp://postimage.co.nr/2016/8/internet/4.html  \nhttp://postimage.co.nr/2016/8/internet/5.html  \nhttp://postimage.co.nr/2016/8/internet/6.html  \nhttp://postimage.co.nr/2016/8/internet/7.html  \nhttp://postimage.co.nr/2016/8/internet/8.html  \nhttp://postimage.co.nr/2016/8/internet/9.html  \nhttp://postimage.co.nr/2016/8/internet/10.html\r\n\r\nFormat                                   : Matroska\r\nFormat version                           : Version 4 / Version 2\r\nFile size                                : 699 MiB\r\nDuration                                 : 1 h 25 min\r\nOverall bit rate mode                    : Constant\r\nOverall bit rate                         : 1 150 kb/s\r\nMovie name                               : Ice Age Collision Course 2016 English Movies HD TS XviD AAC New Source ☻rDX☻\r\n\r\nVideo\r\nID                                       : 2\r\nFormat                                   : AVC\r\nFormat/Info                              : Advanced Video Codec\r\nFormat profile                           :   \r\nFormat settings, CABAC                   : Yes\r\nFormat settings, ReFrames                : 2 frames\r\nFormat settings, GOP                     : M=1, N=12\r\nCodec ID                                 : V_MPEG4/ISO/AVC\r\nDuration                                 : 1 h 25 min\r\nBit rate mode                            : Constant\r\nBit rate                                 : 1 023 kb/s\r\nWidth                                    : 720 pixels\r\nHeight                                   : 336 pixels\r\nDisplay aspect ratio                     : 2.143\r\nFrame rate mode                          : Constant\r\nFrame rate                               : 30.000 FPS\r\nColor space                              : YUV\r\nChroma subsampling                       : 4:2:0\r\nBit depth                                : 8 bits\r\nScan type                                : Progressive\r\nBits/(Pixel*Frame)                       : 0.141\r\nStream size                              : 607 MiB (87%)\r\nTitle                                    : ☻rDX☻\r\n\r\nAudio\r\nID                                       : 1\r\nFormat                                   : MPEG Audio\r\nFormat version                           : Version 1\r\nFormat profile                           : Layer 3\r\nCodec ID                                 : A_MPEG/L3\r\nCodec ID/Hint                            : MP3\r\nDuration                                 : 1 h 25 min\r\nBit rate mode                            : Constant\r\nBit rate                                 : 128 kb/s\r\nChannel(s)                               : 2 channels\r\nSampling rate                            : 44.1 kHz\r\nCompression mode                         : Lossy\r\nDelay relative to video                  : 4 ms\r\nStream size                              : 77.8 MiB (11%)\r\nTitle                                    : ☻rDX☻\r\nWriting library                          : LAME3.99.5\r\nDefault                                  : Yes\r\nForced                                   : No\r\n\r\nIMDB \nhttp://www.imdb.com/title/tt3416828/","torrent":{"xt":"urn:btih:d7334110408f3ddf79fbea44e4b1544be603f67b","amp;dn":"Ice+Age+Collision+Course+2016+Movies+HD+TS+XviD+New+%2BSample+%E2%98%BBrDX","amp;tr":["udp%3A%2F%2Ftracker.leechers-paradise.org%3A6969","udp%3A%2F%2Fzer0day.ch%3A1337","udp%3A%2F%2Fopen.demonii.com%3A1337","udp%3A%2F%2Ftracker.coppersurfer.tk%3A6969","udp%3A%2F%2Fexodus.desync.com%3A6969"],"infoHash":"d7334110408f3ddf79fbea44e4b1544be603f67b","infoHashBuffer":{"type":"Buffer","data":[215,51,65,16,64,143,61,223,121,251,234,68,228,177,84,75,230,3,246,123]},"announce":[],"urlList":[]}}